<svg id="圖層_1" data-name="圖層 1" xmlns="http://www.w3.org/2000/svg" viewBox="0 0 85.04 85.04"><defs><style>.cls-1{fill:#00c4b3;}</style></defs><title>123</title><path class="cls-1" d="M69.88,52.36v.09s0,.51-.21.57L44.35,60.3l0-27.68,25.07-1.39,1.77-.1Zm-54.73.08v-.09L13.89,31.12l4,.23,22.83,1.27,0,27.68L15.39,53c-.22-.06-.24-.57-.24-.58M38,24.34a.13.13,0,0,1,.05.07L39.84,29,20.26,27.91l-7.15-.39L11.5,24.33H38Zm9,.07a.13.13,0,0,1,.05-.07H73.54l-1.62,3.18-7.54.42L45.19,29ZM77.62,22a2.34,2.34,0,0,0-2.22-1.18H46.88a3.49,3.49,0,0,0-3.1,2.13.67.67,0,0,0-.06.12l-1.2,3.05L41.31,23l-.06-.12a3.51,3.51,0,0,0-3.1-2.13H9.63A2.35,2.35,0,0,0,7.41,22a2.49,2.49,0,0,0,.13,2.44l2.69,5.31,1.36,22.82a4,4,0,0,0,2.79,3.9l26.5,7.63a6.54,6.54,0,0,0,1.53.2h.22a6.52,6.52,0,0,0,1.56-.21l26.5-7.62a4,4,0,0,0,2.75-3.89L74.8,29.72l2.7-5.32A2.51,2.51,0,0,0,77.62,22"/></svg>