<svg width="170" height="170" xmlns="http://www.w3.org/2000/svg" xml:space="preserve" version="1.1">
 <g id="Layer_1">
  <title>Layer 1</title>
  <g stroke="null">

   <title stroke="null">123</title>
   <path stroke="null" fill="#00c4b3" d="m119.72325,71.3543l0,0.13133s0,0.74419 -0.26642,0.83174l-32.12285,10.62296l0,-40.39059l31.80568,-2.02828l2.24555,-0.14592l-1.66196,30.97876zm-69.43458,0.11674l0,-0.13133l-1.59853,-30.97876l5.0747,0.33562l28.96385,1.85318l0,40.39059l-32.13554,-10.65214c-0.27911,-0.08755 -0.30448,-0.83174 -0.30448,-0.84633m28.98922,-40.97427a0.16493,0.1897 0 0 1 0.06343,0.10214l2.27093,6.69772l-24.84066,-1.59053l-9.07103,-0.56909l-2.04257,-4.65484l33.61989,0l0,0.01459zm11.41807,0.10214a0.16493,0.1897 0 0 1 0.06343,-0.10214l33.6072,0l-2.05525,4.64025l-9.56581,0.61286l-24.34587,1.54675l2.2963,-6.69772zm38.84683,-3.51667a2.9687,3.41452 0 0 0 -2.81646,-1.72185l-36.18261,0a4.42768,5.0926 0 0 0 -3.93289,3.10809a0.85001,0.97766 0 0 0 -0.07612,0.1751l-1.52241,4.45055l-1.5351,-4.5527l-0.07612,-0.1751a4.45305,5.12178 0 0 0 -3.93289,-3.10809l-36.18261,0a2.98139,3.42911 0 0 0 -2.81646,1.824a3.159,3.6334 0 0 0 0.16493,3.56044l3.41274,7.74834l1.7254,33.29889a5.0747,5.83679 0 0 0 3.5396,5.69087l33.61989,11.13368a8.29713,9.54315 0 0 0 1.94107,0.29184l0.27911,0a8.27176,9.51397 0 0 0 1.97913,-0.30643l33.61989,-11.11909a5.0747,5.83679 0 0 0 3.48886,-5.67628l1.7254,-33.35726l3.42542,-7.76293a3.18437,3.66259 0 0 0 0.15224,-3.50207" class="cls-1"/>
  </g>
  <text transform="matrix(1 0 0 1 0 0)" font-weight="bold" xml:space="preserve" text-anchor="start" font-family="Noto Sans JP" font-size="24" id="svg_2" y="122.5" x="36.55469" stroke-width="0" stroke="#000" fill="#000000">BOXFUL</text>
  <text transform="matrix(0.849234 0 0 0.804706 20.5858 26.333)" stroke="#000" xml:space="preserve" text-anchor="start" font-family="Noto Sans JP" font-size="15" id="svg_3" y="144.28655" x="38.67179" stroke-width="0" fill="#00d4c2">RUSTDESK</text>
 </g>

</svg>